solid OpenSCAD_Model
  facet normal -1 0 0
    outer loop
      vertex 0 2.22045e-15 0
      vertex 0 10.0138 0.439533
      vertex 0 10.0415 0
    endloop
  endfacet
  facet normal -1 -0 0
    outer loop
      vertex 0 10.0138 0.439533
      vertex 0 2.22045e-15 0
      vertex 0 7.10543e-15 22
    endloop
  endfacet
  facet normal -1 0 0
    outer loop
      vertex 0 15.2592 6.78008
      vertex 0 17 22
      vertex 0 17 7
    endloop
  endfacet
  facet normal -1 0 0
    outer loop
      vertex 0 13.6277 6.13415
      vertex 0 17 22
      vertex 0 15.2592 6.78008
    endloop
  endfacet
  facet normal -1 0 0
    outer loop
      vertex 0 7.10543e-15 22
      vertex 0 13.6277 6.13415
      vertex 0 12.2082 5.10278
    endloop
  endfacet
  facet normal -1 0 0
    outer loop
      vertex 0 7.10543e-15 22
      vertex 0 12.2082 5.10278
      vertex 0 11.0897 3.75079
    endloop
  endfacet
  facet normal -1 0 0
    outer loop
      vertex 0 7.10543e-15 22
      vertex 0 11.0897 3.75079
      vertex 0 10.3426 2.16312
    endloop
  endfacet
  facet normal -1 0 0
    outer loop
      vertex 0 13.6277 6.13415
      vertex 0 7.10543e-15 22
      vertex 0 17 22
    endloop
  endfacet
  facet normal -1 0 0
    outer loop
      vertex 0 7.10543e-15 22
      vertex 0 10.3426 2.16312
      vertex 0 10.0138 0.439533
    endloop
  endfacet
  facet normal 1 -0 0
    outer loop
      vertex 0 -2 0
      vertex 0 0 -10
      vertex 0 2.22045e-15 0
    endloop
  endfacet
  facet normal 1 0 0
    outer loop
      vertex 0 0 -10
      vertex 0 -2 0
      vertex 0 -2 -10
    endloop
  endfacet
  facet normal 0 -1 0
    outer loop
      vertex -18.7 -2 -5.3
      vertex -12.6753 -2 -6.50237
      vertex -6.5 -2 -5.3
    endloop
  endfacet
  facet normal 0 -1 0
    outer loop
      vertex -18.7 -2 -5.3
      vertex -12.9708 -2 -6.55873
      vertex -12.6753 -2 -6.50237
    endloop
  endfacet
  facet normal 0 -1 0
    outer loop
      vertex -18.7 -2 -5.3
      vertex -13.243 -2 -6.68681
      vertex -12.9708 -2 -6.55873
    endloop
  endfacet
  facet normal 0 -1 0
    outer loop
      vertex -18.7 -2 -5.3
      vertex -13.4748 -2 -6.87854
      vertex -13.243 -2 -6.68681
    endloop
  endfacet
  facet normal 0 -1 0
    outer loop
      vertex -18.7 -2 -5.3
      vertex -13.6516 -2 -7.1219
      vertex -13.4748 -2 -6.87854
    endloop
  endfacet
  facet normal 0 -1 0
    outer loop
      vertex -18.7 -2 -5.3
      vertex -13.7623 -2 -7.40157
      vertex -13.6516 -2 -7.1219
    endloop
  endfacet
  facet normal 0 -1 0
    outer loop
      vertex -18.7 -2 -5.3
      vertex -13.8 -2 -7.7
      vertex -13.7623 -2 -7.40157
    endloop
  endfacet
  facet normal 0 -1 0
    outer loop
      vertex -18.7 -2 -9.72943
      vertex -13.8 -2 -7.7
      vertex -18.7 -2 -5.3
    endloop
  endfacet
  facet normal 0 -1 -0
    outer loop
      vertex -13.8 -2 -7.7
      vertex -18.7 -2 -9.72943
      vertex -13.7623 -2 -7.99843
    endloop
  endfacet
  facet normal 0 -1 -0
    outer loop
      vertex -13.7623 -2 -7.99843
      vertex -18.7 -2 -9.72943
      vertex -13.6516 -2 -8.2781
    endloop
  endfacet
  facet normal 0 -1 0
    outer loop
      vertex -18.7 -2 -10
      vertex -13.6516 -2 -8.2781
      vertex -18.7 -2 -9.72943
    endloop
  endfacet
  facet normal 0 -1 -0
    outer loop
      vertex -13.243 -2 -8.71319
      vertex -18.7 -2 -10
      vertex -12.9708 -2 -8.84127
    endloop
  endfacet
  facet normal 0 -1 -0
    outer loop
      vertex -13.4748 -2 -8.52146
      vertex -18.7 -2 -10
      vertex -13.243 -2 -8.71319
    endloop
  endfacet
  facet normal 0 -1 -0
    outer loop
      vertex -13.6516 -2 -8.2781
      vertex -18.7 -2 -10
      vertex -13.4748 -2 -8.52146
    endloop
  endfacet
  facet normal 0 -1 0
    outer loop
      vertex -12.3751 -2 20.7787
      vertex -18.7 -2 22
      vertex -12.6753 -2 20.7976
    endloop
  endfacet
  facet normal 0 -1 0
    outer loop
      vertex -18.7 -2 22
      vertex -12.9708 -2 20.7413
      vertex -12.6753 -2 20.7976
    endloop
  endfacet
  facet normal 0 -1 0
    outer loop
      vertex -18.7 -2 22
      vertex -13.243 -2 20.6132
      vertex -12.9708 -2 20.7413
    endloop
  endfacet
  facet normal 0 -1 0
    outer loop
      vertex -18.7 -2 22
      vertex -13.4748 -2 20.4215
      vertex -13.243 -2 20.6132
    endloop
  endfacet
  facet normal 0 -1 0
    outer loop
      vertex -18.7 -2 22
      vertex -13.6516 -2 20.1781
      vertex -13.4748 -2 20.4215
    endloop
  endfacet
  facet normal 0 -1 0
    outer loop
      vertex -18.7 -2 22
      vertex -13.7623 -2 19.8984
      vertex -13.6516 -2 20.1781
    endloop
  endfacet
  facet normal 0 -1 0
    outer loop
      vertex -18.7 -2 22
      vertex -13.8 -2 19.6
      vertex -13.7623 -2 19.8984
    endloop
  endfacet
  facet normal 0 -1 0
    outer loop
      vertex -18.7 -2 17.2
      vertex -13.8 -2 19.6
      vertex -18.7 -2 22
    endloop
  endfacet
  facet normal 0 -1 -0
    outer loop
      vertex -13.8 -2 19.6
      vertex -18.7 -2 17.2
      vertex -13.7623 -2 19.3016
    endloop
  endfacet
  facet normal 0 -1 -0
    outer loop
      vertex -13.7623 -2 19.3016
      vertex -18.7 -2 17.2
      vertex -13.6516 -2 19.0219
    endloop
  endfacet
  facet normal 0 -1 -0
    outer loop
      vertex -13.6516 -2 19.0219
      vertex -18.7 -2 17.2
      vertex -13.4748 -2 18.7785
    endloop
  endfacet
  facet normal 0 -1 -0
    outer loop
      vertex -12.9708 -2 18.4587
      vertex -18.7 -2 17.2
      vertex -12.6753 -2 18.4024
    endloop
  endfacet
  facet normal 0 -1 -0
    outer loop
      vertex -13.243 -2 18.5868
      vertex -18.7 -2 17.2
      vertex -12.9708 -2 18.4587
    endloop
  endfacet
  facet normal 0 -1 -0
    outer loop
      vertex -13.4748 -2 18.7785
      vertex -18.7 -2 17.2
      vertex -13.243 -2 18.5868
    endloop
  endfacet
  facet normal 0 -1 0
    outer loop
      vertex -18.7 -2 22
      vertex -12.3751 -2 20.7787
      vertex 0 -2 22
    endloop
  endfacet
  facet normal 0 -1 0
    outer loop
      vertex -12.0891 -2 20.6858
      vertex 0 -2 22
      vertex -12.3751 -2 20.7787
    endloop
  endfacet
  facet normal 0 -1 0
    outer loop
      vertex -11.8351 -2 20.5246
      vertex 0 -2 22
      vertex -12.0891 -2 20.6858
    endloop
  endfacet
  facet normal 0 -1 0
    outer loop
      vertex -11.6292 -2 20.3053
      vertex 0 -2 22
      vertex -11.8351 -2 20.5246
    endloop
  endfacet
  facet normal 0 -1 0
    outer loop
      vertex -6.5 -2 17.2
      vertex -11.6292 -2 20.3053
      vertex -11.4843 -2 20.0417
    endloop
  endfacet
  facet normal 0 -1 0
    outer loop
      vertex -6.5 -2 17.2
      vertex -11.4843 -2 20.0417
      vertex -11.4095 -2 19.7504
    endloop
  endfacet
  facet normal 0 -1 0
    outer loop
      vertex -6.5 -2 17.2
      vertex -11.4095 -2 19.7504
      vertex -11.4095 -2 19.4496
    endloop
  endfacet
  facet normal 0 -1 0
    outer loop
      vertex -6.5 -2 17.2
      vertex -11.4095 -2 19.4496
      vertex -11.4843 -2 19.1582
    endloop
  endfacet
  facet normal 0 -1 0
    outer loop
      vertex -6.5 -2 17.2
      vertex -11.4843 -2 19.1582
      vertex -11.6292 -2 18.8947
    endloop
  endfacet
  facet normal 0 -1 0
    outer loop
      vertex -6.5 -2 17.2
      vertex -11.6292 -2 18.8947
      vertex -11.8351 -2 18.6754
    endloop
  endfacet
  facet normal 0 -1 0
    outer loop
      vertex -6.5 -2 17.2
      vertex -11.8351 -2 18.6754
      vertex -12.0891 -2 18.5142
    endloop
  endfacet
  facet normal 0 -1 0
    outer loop
      vertex -6.5 -2 17.2
      vertex -12.0891 -2 18.5142
      vertex -12.3751 -2 18.4213
    endloop
  endfacet
  facet normal 0 -1 0
    outer loop
      vertex -6.5 -2 17.2
      vertex -12.6753 -2 18.4024
      vertex -18.7 -2 17.2
    endloop
  endfacet
  facet normal 0 -1 0
    outer loop
      vertex -12.6753 -2 18.4024
      vertex -6.5 -2 17.2
      vertex -12.3751 -2 18.4213
    endloop
  endfacet
  facet normal 0 -1 0
    outer loop
      vertex -11.6292 -2 20.3053
      vertex -6.5 -2 17.2
      vertex 0 -2 22
    endloop
  endfacet
  facet normal 0 -1 0
    outer loop
      vertex -6.5 -2 17.2
      vertex 0 -2 0
      vertex 0 -2 22
    endloop
  endfacet
  facet normal 0 -1 0
    outer loop
      vertex -6.5 -2 -5.3
      vertex 0 -2 0
      vertex -6.5 -2 17.2
    endloop
  endfacet
  facet normal 0 -1 0
    outer loop
      vertex -12.3751 -2 -6.52126
      vertex -6.5 -2 -5.3
      vertex -12.6753 -2 -6.50237
    endloop
  endfacet
  facet normal 0 -1 0
    outer loop
      vertex -12.0891 -2 -6.61421
      vertex -6.5 -2 -5.3
      vertex -12.3751 -2 -6.52126
    endloop
  endfacet
  facet normal 0 -1 0
    outer loop
      vertex -11.8351 -2 -6.77538
      vertex -6.5 -2 -5.3
      vertex -12.0891 -2 -6.61421
    endloop
  endfacet
  facet normal 0 -1 0
    outer loop
      vertex -11.6292 -2 -6.99466
      vertex -6.5 -2 -5.3
      vertex -11.8351 -2 -6.77538
    endloop
  endfacet
  facet normal 0 -1 0
    outer loop
      vertex -11.4843 -2 -7.25825
      vertex -6.5 -2 -5.3
      vertex -11.6292 -2 -6.99466
    endloop
  endfacet
  facet normal 0 -1 0
    outer loop
      vertex -11.4095 -2 -7.5496
      vertex -6.5 -2 -5.3
      vertex -11.4843 -2 -7.25825
    endloop
  endfacet
  facet normal 0 -1 0
    outer loop
      vertex -11.4095 -2 -7.8504
      vertex -6.5 -2 -5.3
      vertex -11.4095 -2 -7.5496
    endloop
  endfacet
  facet normal 0 -1 0
    outer loop
      vertex -11.4843 -2 -8.14175
      vertex -6.5 -2 -5.3
      vertex -11.4095 -2 -7.8504
    endloop
  endfacet
  facet normal 0 -1 0
    outer loop
      vertex -11.6292 -2 -8.40534
      vertex -6.5 -2 -5.3
      vertex -11.4843 -2 -8.14175
    endloop
  endfacet
  facet normal 0 -1 0
    outer loop
      vertex 0 -2 -10
      vertex -11.6292 -2 -8.40534
      vertex -11.8351 -2 -8.62462
    endloop
  endfacet
  facet normal 0 -1 0
    outer loop
      vertex 0 -2 -10
      vertex -11.8351 -2 -8.62462
      vertex -12.0891 -2 -8.78579
    endloop
  endfacet
  facet normal 0 -1 -0
    outer loop
      vertex -12.9708 -2 -8.84127
      vertex -18.7 -2 -10
      vertex -12.6753 -2 -8.89763
    endloop
  endfacet
  facet normal 0 -1 -0
    outer loop
      vertex -12.6753 -2 -8.89763
      vertex -18.7 -2 -10
      vertex -12.3751 -2 -8.87875
    endloop
  endfacet
  facet normal 0 -1 0
    outer loop
      vertex -6.5 -2 -5.3
      vertex 0 -2 -10
      vertex 0 -2 0
    endloop
  endfacet
  facet normal 0 -1 0
    outer loop
      vertex -11.6292 -2 -8.40534
      vertex 0 -2 -10
      vertex -6.5 -2 -5.3
    endloop
  endfacet
  facet normal 0 -1 0
    outer loop
      vertex -12.3751 -2 -8.87875
      vertex 0 -2 -10
      vertex -12.0891 -2 -8.78579
    endloop
  endfacet
  facet normal 0 -1 0
    outer loop
      vertex 0 -2 -10
      vertex -12.3751 -2 -8.87875
      vertex -18.7 -2 -10
    endloop
  endfacet
  facet normal 1 0 0
    outer loop
      vertex -18.7 -2 0
      vertex -18.7 6.03961e-15 17.2
      vertex -18.7 -2 17.2
    endloop
  endfacet
  facet normal 1 0 0
    outer loop
      vertex -18.7 6.03961e-15 17.2
      vertex -18.7 -2 0
      vertex -18.7 1.04361e-15 -5.3
    endloop
  endfacet
  facet normal 1 0 0
    outer loop
      vertex -18.7 1.04361e-15 -5.3
      vertex -18.7 -2 0
      vertex -18.7 -2 -5.3
    endloop
  endfacet
  facet normal 1 0 0
    outer loop
      vertex -18.7 15 22
      vertex -18.7 13.6277 17.4341
      vertex -18.7 15 17.9775
    endloop
  endfacet
  facet normal 1 0 0
    outer loop
      vertex -18.7 15 22
      vertex -18.7 12.2082 16.4028
      vertex -18.7 13.6277 17.4341
    endloop
  endfacet
  facet normal 1 -0 0
    outer loop
      vertex -18.7 7.10543e-15 22
      vertex -18.7 12.2082 16.4028
      vertex -18.7 15 22
    endloop
  endfacet
  facet normal 1 0 0
    outer loop
      vertex -18.7 10.6662 8.31954
      vertex -18.7 1.04361e-15 -5.3
      vertex -18.7 9.94076 0
    endloop
  endfacet
  facet normal 1 0 0
    outer loop
      vertex -18.7 9.94076 0
      vertex -18.7 1.04361e-15 -5.3
      vertex -18.7 9.82287 -1.87381
    endloop
  endfacet
  facet normal 1 0 0
    outer loop
      vertex -18.7 9.82287 -1.87381
      vertex -18.7 1.04361e-15 -5.3
      vertex -18.7 9.04827 -4.25779
    endloop
  endfacet
  facet normal 1 0 0
    outer loop
      vertex -18.7 9.04827 -4.25779
      vertex -18.7 1.04361e-15 -5.3
      vertex -18.7 7.70513 -6.37424
    endloop
  endfacet
  facet normal 1 0 0
    outer loop
      vertex -18.7 6.03961e-15 17.2
      vertex -18.7 10.0138 11.7395
      vertex -18.7 10.3426 13.4631
    endloop
  endfacet
  facet normal 1 0 0
    outer loop
      vertex -18.7 7.70513 -6.37424
      vertex -18.7 1.04361e-15 -5.3
      vertex -18.7 5.87785 -8.09017
    endloop
  endfacet
  facet normal 1 0 0
    outer loop
      vertex -18.7 5.87785 -8.09017
      vertex -18.7 1.04361e-15 -5.3
      vertex -18.7 3.68124 -9.29776
    endloop
  endfacet
  facet normal 1 0 0
    outer loop
      vertex -18.7 12.2082 16.4028
      vertex -18.7 7.10543e-15 22
      vertex -18.7 11.0897 15.0508
    endloop
  endfacet
  facet normal 1 -0 0
    outer loop
      vertex -18.7 6.03961e-15 17.2
      vertex -18.7 11.0897 15.0508
      vertex -18.7 7.10543e-15 22
    endloop
  endfacet
  facet normal 1 0 0
    outer loop
      vertex -18.7 11.0897 15.0508
      vertex -18.7 6.03961e-15 17.2
      vertex -18.7 10.3426 13.4631
    endloop
  endfacet
  facet normal 1 0 0
    outer loop
      vertex -18.7 10.0138 11.7395
      vertex -18.7 6.03961e-15 17.2
      vertex -18.7 1.04361e-15 -5.3
    endloop
  endfacet
  facet normal 1 0 0
    outer loop
      vertex -18.7 3.68124 -9.29776
      vertex -18.7 1.04361e-15 -5.3
      vertex -18.7 1.25333 -9.92115
    endloop
  endfacet
  facet normal 1 0 0
    outer loop
      vertex -18.7 1.25333 -9.92115
      vertex -18.7 1.04361e-15 -5.3
      vertex -18.7 1.7509e-17 -9.92115
    endloop
  endfacet
  facet normal 1 0 0
    outer loop
      vertex -18.7 14.4231 4.79156
      vertex -18.7 15 0
      vertex -18.7 15 4.64345
    endloop
  endfacet
  facet normal 1 0 0
    outer loop
      vertex -18.7 9.94076 0
      vertex -18.7 14.4231 4.79156
      vertex -18.7 12.8855 5.63688
    endloop
  endfacet
  facet normal 1 0 0
    outer loop
      vertex -18.7 9.94076 0
      vertex -18.7 12.8855 5.63688
      vertex -18.7 11.6064 6.83803
    endloop
  endfacet
  facet normal 1 0 0
    outer loop
      vertex -18.7 9.94076 0
      vertex -18.7 11.6064 6.83803
      vertex -18.7 10.6662 8.31954
    endloop
  endfacet
  facet normal 1 0 0
    outer loop
      vertex -18.7 14.4231 4.79156
      vertex -18.7 9.94076 0
      vertex -18.7 15 0
    endloop
  endfacet
  facet normal 1 0 0
    outer loop
      vertex -18.7 1.04361e-15 -5.3
      vertex -18.7 10.6662 8.31954
      vertex -18.7 10.124 9.98833
    endloop
  endfacet
  facet normal 1 0 0
    outer loop
      vertex -18.7 1.04361e-15 -5.3
      vertex -18.7 10.124 9.98833
      vertex -18.7 10.0138 11.7395
    endloop
  endfacet
  facet normal 0 0 0
    outer loop
      vertex -18.7 -2 0
      vertex -18.7 -2 -9.72943
      vertex -18.7 -2 -5.3
    endloop
  endfacet
  facet normal 0 0 0
    outer loop
      vertex -18.7 -2 0
      vertex -18.7 -2 17.2
      vertex -18.7 -2 22
    endloop
  endfacet
  facet normal -1 0 0
    outer loop
      vertex -18.7 0 -10
      vertex -18.7 -1.25333 -9.92115
      vertex -18.7 1.7509e-17 -9.92115
    endloop
  endfacet
  facet normal -1 0 0
    outer loop
      vertex -18.7 -2 -10
      vertex -18.7 -1.25333 -9.92115
      vertex -18.7 0 -10
    endloop
  endfacet
  facet normal -1 -0 0
    outer loop
      vertex -18.7 -1.25333 -9.92115
      vertex -18.7 -2 -10
      vertex -18.7 -2 -9.72943
    endloop
  endfacet
  facet normal -0 0 1
    outer loop
      vertex -18.7 7.10543e-15 22
      vertex 0 -2 22
      vertex 0 7.10543e-15 22
    endloop
  endfacet
  facet normal 0 0 1
    outer loop
      vertex 0 -2 22
      vertex -18.7 7.10543e-15 22
      vertex -18.7 -2 22
    endloop
  endfacet
  facet normal 0 1 -2.22045e-16
    outer loop
      vertex -12.3751 6.83425e-15 20.7787
      vertex -18.7 7.10543e-15 22
      vertex 0 7.10543e-15 22
    endloop
  endfacet
  facet normal 0 1 -2.22045e-16
    outer loop
      vertex -18.7 7.10543e-15 22
      vertex -12.3751 6.83425e-15 20.7787
      vertex -12.6753 6.83845e-15 20.7976
    endloop
  endfacet
  facet normal 0 1 -2.22045e-16
    outer loop
      vertex 0 7.10543e-15 22
      vertex -12.0891 6.81361e-15 20.6858
      vertex -12.3751 6.83425e-15 20.7787
    endloop
  endfacet
  facet normal 0 1 -2.22045e-16
    outer loop
      vertex 0 7.10543e-15 22
      vertex -11.8351 6.77783e-15 20.5246
      vertex -12.0891 6.81361e-15 20.6858
    endloop
  endfacet
  facet normal 0 1 -2.22045e-16
    outer loop
      vertex 0 7.10543e-15 22
      vertex -11.6292 6.72914e-15 20.3053
      vertex -11.8351 6.77783e-15 20.5246
    endloop
  endfacet
  facet normal 0 1 -2.22045e-16
    outer loop
      vertex -6.5 6.03961e-15 17.2
      vertex -11.6292 6.72914e-15 20.3053
      vertex 0 7.10543e-15 22
    endloop
  endfacet
  facet normal 0 1 -2.22045e-16
    outer loop
      vertex -11.6292 6.72914e-15 20.3053
      vertex -6.5 6.03961e-15 17.2
      vertex -11.4843 6.67061e-15 20.0417
    endloop
  endfacet
  facet normal 0 1 -2.22045e-16
    outer loop
      vertex -11.4843 6.67061e-15 20.0417
      vertex -6.5 6.03961e-15 17.2
      vertex -11.4095 6.60592e-15 19.7504
    endloop
  endfacet
  facet normal 0 1 -2.22045e-16
    outer loop
      vertex -11.4095 6.60592e-15 19.7504
      vertex -6.5 6.03961e-15 17.2
      vertex -11.4095 6.53912e-15 19.4496
    endloop
  endfacet
  facet normal 0 1 -2.22045e-16
    outer loop
      vertex -11.4095 6.53912e-15 19.4496
      vertex -6.5 6.03961e-15 17.2
      vertex -11.4843 6.47443e-15 19.1582
    endloop
  endfacet
  facet normal 0 1 -2.22045e-16
    outer loop
      vertex -11.4843 6.47443e-15 19.1582
      vertex -6.5 6.03961e-15 17.2
      vertex -11.6292 6.4159e-15 18.8947
    endloop
  endfacet
  facet normal 0 1 -2.22045e-16
    outer loop
      vertex -11.6292 6.4159e-15 18.8947
      vertex -6.5 6.03961e-15 17.2
      vertex -11.8351 6.36721e-15 18.6754
    endloop
  endfacet
  facet normal 0 1 -2.22045e-16
    outer loop
      vertex -11.8351 6.36721e-15 18.6754
      vertex -6.5 6.03961e-15 17.2
      vertex -12.0891 6.33143e-15 18.5142
    endloop
  endfacet
  facet normal 0 1 -2.22045e-16
    outer loop
      vertex -12.3751 6.31079e-15 18.4213
      vertex -6.5 6.03961e-15 17.2
      vertex -12.6753 6.30659e-15 18.4024
    endloop
  endfacet
  facet normal 0 1 -2.22045e-16
    outer loop
      vertex -12.0891 6.33143e-15 18.5142
      vertex -6.5 6.03961e-15 17.2
      vertex -12.3751 6.31079e-15 18.4213
    endloop
  endfacet
  facet normal 0 1 -2.22045e-16
    outer loop
      vertex 0 2.22045e-15 0
      vertex -6.5 6.03961e-15 17.2
      vertex 0 7.10543e-15 22
    endloop
  endfacet
  facet normal 0 1 -2.22045e-16
    outer loop
      vertex 0 2.22045e-15 0
      vertex -6.5 1.04361e-15 -5.3
      vertex -6.5 6.03961e-15 17.2
    endloop
  endfacet
  facet normal 0 1 -2.22045e-16
    outer loop
      vertex -6.5 1.04361e-15 -5.3
      vertex -12.6753 7.7663e-16 -6.50237
      vertex -18.7 1.04361e-15 -5.3
    endloop
  endfacet
  facet normal 0 1 -2.22045e-16
    outer loop
      vertex -6.5 1.04361e-15 -5.3
      vertex -12.3751 7.72436e-16 -6.52126
      vertex -12.6753 7.7663e-16 -6.50237
    endloop
  endfacet
  facet normal 0 1 -2.22045e-16
    outer loop
      vertex -6.5 1.04361e-15 -5.3
      vertex -12.0891 7.51797e-16 -6.61421
      vertex -12.3751 7.72436e-16 -6.52126
    endloop
  endfacet
  facet normal 0 1 -2.22045e-16
    outer loop
      vertex -6.5 1.04361e-15 -5.3
      vertex -11.8351 7.16008e-16 -6.77538
      vertex -12.0891 7.51797e-16 -6.61421
    endloop
  endfacet
  facet normal 0 1 -2.22045e-16
    outer loop
      vertex -6.5 1.04361e-15 -5.3
      vertex -11.6292 6.6732e-16 -6.99466
      vertex -11.8351 7.16008e-16 -6.77538
    endloop
  endfacet
  facet normal 0 1 -2.22045e-16
    outer loop
      vertex -6.5 1.04361e-15 -5.3
      vertex -11.4843 6.08791e-16 -7.25825
      vertex -11.6292 6.6732e-16 -6.99466
    endloop
  endfacet
  facet normal 0 1 -2.22045e-16
    outer loop
      vertex -6.5 1.04361e-15 -5.3
      vertex -11.4095 5.44098e-16 -7.5496
      vertex -11.4843 6.08791e-16 -7.25825
    endloop
  endfacet
  facet normal 0 1 -2.22045e-16
    outer loop
      vertex -6.5 1.04361e-15 -5.3
      vertex -11.4095 4.77307e-16 -7.8504
      vertex -11.4095 5.44098e-16 -7.5496
    endloop
  endfacet
  facet normal 0 1 -2.22045e-16
    outer loop
      vertex -6.5 1.04361e-15 -5.3
      vertex -11.4843 4.12614e-16 -8.14175
      vertex -11.4095 4.77307e-16 -7.8504
    endloop
  endfacet
  facet normal 0 1 -2.22045e-16
    outer loop
      vertex -6.5 1.04361e-15 -5.3
      vertex -11.6292 3.54085e-16 -8.40534
      vertex -11.4843 4.12614e-16 -8.14175
    endloop
  endfacet
  facet normal 0 1 -2.22045e-16
    outer loop
      vertex 0 0 -10
      vertex -11.6292 3.54085e-16 -8.40534
      vertex -6.5 1.04361e-15 -5.3
    endloop
  endfacet
  facet normal 0 1 -2.22045e-16
    outer loop
      vertex -11.6292 3.54085e-16 -8.40534
      vertex 0 0 -10
      vertex -11.8351 3.05396e-16 -8.62462
    endloop
  endfacet
  facet normal 0 1 -2.22045e-16
    outer loop
      vertex -18.7 0 -10
      vertex -12.6753 2.44775e-16 -8.89763
      vertex -12.3751 2.48969e-16 -8.87875
    endloop
  endfacet
  facet normal 0 1 -2.22045e-16
    outer loop
      vertex 0 0 -10
      vertex -6.5 1.04361e-15 -5.3
      vertex 0 2.22045e-15 0
    endloop
  endfacet
  facet normal 0 1 -2.22045e-16
    outer loop
      vertex -11.8351 3.05396e-16 -8.62462
      vertex 0 0 -10
      vertex -12.0891 2.69608e-16 -8.78579
    endloop
  endfacet
  facet normal 0 1 -2.22045e-16
    outer loop
      vertex 0 0 -10
      vertex -12.3751 2.48969e-16 -8.87875
      vertex -12.0891 2.69608e-16 -8.78579
    endloop
  endfacet
  facet normal 0 1 -2.22045e-16
    outer loop
      vertex -18.7 0 -10
      vertex -12.3751 2.48969e-16 -8.87875
      vertex 0 0 -10
    endloop
  endfacet
  facet normal 0 1 -2.22045e-16
    outer loop
      vertex -12.6753 2.44775e-16 -8.89763
      vertex -18.7 0 -10
      vertex -18.7 1.7509e-17 -9.92115
    endloop
  endfacet
  facet normal 0 1 -2.22045e-16
    outer loop
      vertex -12.9708 6.82593e-15 20.7413
      vertex -18.7 7.10543e-15 22
      vertex -12.6753 6.83845e-15 20.7976
    endloop
  endfacet
  facet normal 0 1 -2.22045e-16
    outer loop
      vertex -13.243 6.79749e-15 20.6132
      vertex -18.7 7.10543e-15 22
      vertex -12.9708 6.82593e-15 20.7413
    endloop
  endfacet
  facet normal 0 1 -2.22045e-16
    outer loop
      vertex -13.4748 6.75492e-15 20.4215
      vertex -18.7 7.10543e-15 22
      vertex -13.243 6.79749e-15 20.6132
    endloop
  endfacet
  facet normal 0 1 -2.22045e-16
    outer loop
      vertex -13.6516 6.70089e-15 20.1781
      vertex -18.7 7.10543e-15 22
      vertex -13.4748 6.75492e-15 20.4215
    endloop
  endfacet
  facet normal 0 1 -2.22045e-16
    outer loop
      vertex -13.7623 6.63878e-15 19.8984
      vertex -18.7 7.10543e-15 22
      vertex -13.6516 6.70089e-15 20.1781
    endloop
  endfacet
  facet normal 0 1 -2.22045e-16
    outer loop
      vertex -13.8 6.57252e-15 19.6
      vertex -18.7 7.10543e-15 22
      vertex -13.7623 6.63878e-15 19.8984
    endloop
  endfacet
  facet normal 0 1 -2.22045e-16
    outer loop
      vertex -18.7 6.03961e-15 17.2
      vertex -13.8 6.57252e-15 19.6
      vertex -13.7623 6.50626e-15 19.3016
    endloop
  endfacet
  facet normal 0 1 -2.22045e-16
    outer loop
      vertex -18.7 6.03961e-15 17.2
      vertex -13.7623 6.50626e-15 19.3016
      vertex -13.6516 6.44416e-15 19.0219
    endloop
  endfacet
  facet normal 0 1 -2.22045e-16
    outer loop
      vertex -18.7 6.03961e-15 17.2
      vertex -13.6516 6.44416e-15 19.0219
      vertex -13.4748 6.39012e-15 18.7785
    endloop
  endfacet
  facet normal 0 1 -2.22045e-16
    outer loop
      vertex -18.7 6.03961e-15 17.2
      vertex -13.4748 6.39012e-15 18.7785
      vertex -13.243 6.34755e-15 18.5868
    endloop
  endfacet
  facet normal 0 1 -2.22045e-16
    outer loop
      vertex -18.7 6.03961e-15 17.2
      vertex -12.6753 6.30659e-15 18.4024
      vertex -6.5 6.03961e-15 17.2
    endloop
  endfacet
  facet normal 0 1 -2.22045e-16
    outer loop
      vertex -13.8 6.57252e-15 19.6
      vertex -18.7 6.03961e-15 17.2
      vertex -18.7 7.10543e-15 22
    endloop
  endfacet
  facet normal 0 1 -2.22045e-16
    outer loop
      vertex -12.9708 6.31911e-15 18.4587
      vertex -18.7 6.03961e-15 17.2
      vertex -13.243 6.34755e-15 18.5868
    endloop
  endfacet
  facet normal 0 1 -2.22045e-16
    outer loop
      vertex -12.6753 6.30659e-15 18.4024
      vertex -18.7 6.03961e-15 17.2
      vertex -12.9708 6.31911e-15 18.4587
    endloop
  endfacet
  facet normal 0 1 -2.22045e-16
    outer loop
      vertex -12.9708 7.64115e-16 -6.55873
      vertex -18.7 1.04361e-15 -5.3
      vertex -12.6753 7.7663e-16 -6.50237
    endloop
  endfacet
  facet normal 0 1 -2.22045e-16
    outer loop
      vertex -13.243 7.35677e-16 -6.68681
      vertex -18.7 1.04361e-15 -5.3
      vertex -12.9708 7.64115e-16 -6.55873
    endloop
  endfacet
  facet normal 0 1 -2.22045e-16
    outer loop
      vertex -13.4748 6.93102e-16 -6.87854
      vertex -18.7 1.04361e-15 -5.3
      vertex -13.243 7.35677e-16 -6.68681
    endloop
  endfacet
  facet normal 0 1 -2.22045e-16
    outer loop
      vertex -13.6516 6.39068e-16 -7.1219
      vertex -18.7 1.04361e-15 -5.3
      vertex -13.4748 6.93102e-16 -6.87854
    endloop
  endfacet
  facet normal 0 1 -2.22045e-16
    outer loop
      vertex -13.7623 5.76967e-16 -7.40157
      vertex -18.7 1.04361e-15 -5.3
      vertex -13.6516 6.39068e-16 -7.1219
    endloop
  endfacet
  facet normal 0 1 -2.22045e-16
    outer loop
      vertex -13.8 5.10702e-16 -7.7
      vertex -18.7 1.04361e-15 -5.3
      vertex -13.7623 5.76967e-16 -7.40157
    endloop
  endfacet
  facet normal 0 1 -2.22045e-16
    outer loop
      vertex -18.7 1.7509e-17 -9.92115
      vertex -13.8 5.10702e-16 -7.7
      vertex -13.7623 4.44438e-16 -7.99843
    endloop
  endfacet
  facet normal 0 1 -2.22045e-16
    outer loop
      vertex -18.7 1.7509e-17 -9.92115
      vertex -13.7623 4.44438e-16 -7.99843
      vertex -13.6516 3.82338e-16 -8.2781
    endloop
  endfacet
  facet normal 0 1 -2.22045e-16
    outer loop
      vertex -18.7 1.7509e-17 -9.92115
      vertex -13.6516 3.82338e-16 -8.2781
      vertex -13.4748 3.28303e-16 -8.52146
    endloop
  endfacet
  facet normal 0 1 -2.22045e-16
    outer loop
      vertex -18.7 1.7509e-17 -9.92115
      vertex -13.4748 3.28303e-16 -8.52146
      vertex -13.243 2.85728e-16 -8.71319
    endloop
  endfacet
  facet normal 0 1 -2.22045e-16
    outer loop
      vertex -13.8 5.10702e-16 -7.7
      vertex -18.7 1.7509e-17 -9.92115
      vertex -18.7 1.04361e-15 -5.3
    endloop
  endfacet
  facet normal 0 1 -2.22045e-16
    outer loop
      vertex -12.9708 2.5729e-16 -8.84127
      vertex -18.7 1.7509e-17 -9.92115
      vertex -13.243 2.85728e-16 -8.71319
    endloop
  endfacet
  facet normal 0 1 -2.22045e-16
    outer loop
      vertex -18.7 1.7509e-17 -9.92115
      vertex -12.9708 2.5729e-16 -8.84127
      vertex -12.6753 2.44775e-16 -8.89763
    endloop
  endfacet
  facet normal 0 0 -1
    outer loop
      vertex -18.7 -2 -10
      vertex 0 0 -10
      vertex 0 -2 -10
    endloop
  endfacet
  facet normal -0 0 -1
    outer loop
      vertex 0 0 -10
      vertex -18.7 -2 -10
      vertex -18.7 0 -10
    endloop
  endfacet
  facet normal -1 0 0
    outer loop
      vertex -6.5 -2 -5.3
      vertex -6.5 6.03961e-15 17.2
      vertex -6.5 1.04361e-15 -5.3
    endloop
  endfacet
  facet normal -1 -0 0
    outer loop
      vertex -6.5 6.03961e-15 17.2
      vertex -6.5 -2 -5.3
      vertex -6.5 -2 17.2
    endloop
  endfacet
  facet normal 0 0 -1
    outer loop
      vertex -18.7 -2 17.2
      vertex -6.5 6.03961e-15 17.2
      vertex -6.5 -2 17.2
    endloop
  endfacet
  facet normal -0 0 -1
    outer loop
      vertex -6.5 6.03961e-15 17.2
      vertex -18.7 -2 17.2
      vertex -18.7 6.03961e-15 17.2
    endloop
  endfacet
  facet normal -0 0 1
    outer loop
      vertex -18.7 1.04361e-15 -5.3
      vertex -6.5 -2 -5.3
      vertex -6.5 1.04361e-15 -5.3
    endloop
  endfacet
  facet normal 0 0 1
    outer loop
      vertex -6.5 -2 -5.3
      vertex -18.7 1.04361e-15 -5.3
      vertex -18.7 -2 -5.3
    endloop
  endfacet
  facet normal 0.809017 0 -0.587785
    outer loop
      vertex -13.4748 -2 -6.87854
      vertex -13.6516 6.39068e-16 -7.1219
      vertex -13.4748 6.93102e-16 -6.87854
    endloop
  endfacet
  facet normal 0.809017 0 -0.587785
    outer loop
      vertex -13.6516 6.39068e-16 -7.1219
      vertex -13.4748 -2 -6.87854
      vertex -13.6516 -2 -7.1219
    endloop
  endfacet
  facet normal -1 0 0
    outer loop
      vertex -11.4095 -2 -7.8504
      vertex -11.4095 5.44098e-16 -7.5496
      vertex -11.4095 4.77307e-16 -7.8504
    endloop
  endfacet
  facet normal -1 -0 0
    outer loop
      vertex -11.4095 5.44098e-16 -7.5496
      vertex -11.4095 -2 -7.8504
      vertex -11.4095 -2 -7.5496
    endloop
  endfacet
  facet normal -0.062791 0 -0.998027
    outer loop
      vertex -12.6753 -2 -6.50237
      vertex -12.3751 7.72436e-16 -6.52126
      vertex -12.3751 -2 -6.52126
    endloop
  endfacet
  facet normal -0.062791 0 -0.998027
    outer loop
      vertex -12.3751 7.72436e-16 -6.52126
      vertex -12.6753 -2 -6.50237
      vertex -12.6753 7.7663e-16 -6.50237
    endloop
  endfacet
  facet normal 0.992115 -0 0.125332
    outer loop
      vertex -13.8 -2 -7.7
      vertex -13.7623 4.44438e-16 -7.99843
      vertex -13.8 5.10702e-16 -7.7
    endloop
  endfacet
  facet normal 0.992115 0 0.125332
    outer loop
      vertex -13.7623 4.44438e-16 -7.99843
      vertex -13.8 -2 -7.7
      vertex -13.7623 -2 -7.99843
    endloop
  endfacet
  facet normal 0.637424 0 -0.770513
    outer loop
      vertex -13.4748 -2 -6.87854
      vertex -13.243 7.35677e-16 -6.68681
      vertex -13.243 -2 -6.68681
    endloop
  endfacet
  facet normal 0.637424 0 -0.770513
    outer loop
      vertex -13.243 7.35677e-16 -6.68681
      vertex -13.4748 -2 -6.87854
      vertex -13.4748 6.93102e-16 -6.87854
    endloop
  endfacet
  facet normal 0.187384 0 -0.982287
    outer loop
      vertex -12.9708 -2 -6.55873
      vertex -12.6753 7.7663e-16 -6.50237
      vertex -12.6753 -2 -6.50237
    endloop
  endfacet
  facet normal 0.187384 0 -0.982287
    outer loop
      vertex -12.6753 7.7663e-16 -6.50237
      vertex -12.9708 -2 -6.55873
      vertex -12.9708 7.64115e-16 -6.55873
    endloop
  endfacet
  facet normal -0.535827 0 -0.844328
    outer loop
      vertex -12.0891 -2 -6.61421
      vertex -11.8351 7.16008e-16 -6.77538
      vertex -11.8351 -2 -6.77538
    endloop
  endfacet
  facet normal -0.535827 0 -0.844328
    outer loop
      vertex -11.8351 7.16008e-16 -6.77538
      vertex -12.0891 -2 -6.61421
      vertex -12.0891 7.51797e-16 -6.61421
    endloop
  endfacet
  facet normal -0.968583 0 -0.248691
    outer loop
      vertex -11.4095 -2 -7.5496
      vertex -11.4843 6.08791e-16 -7.25825
      vertex -11.4095 5.44098e-16 -7.5496
    endloop
  endfacet
  facet normal -0.968583 -0 -0.248691
    outer loop
      vertex -11.4843 6.08791e-16 -7.25825
      vertex -11.4095 -2 -7.5496
      vertex -11.4843 -2 -7.25825
    endloop
  endfacet
  facet normal -0.728969 0 -0.684547
    outer loop
      vertex -11.6292 -2 -6.99466
      vertex -11.8351 7.16008e-16 -6.77538
      vertex -11.6292 6.6732e-16 -6.99466
    endloop
  endfacet
  facet normal -0.728969 -0 -0.684547
    outer loop
      vertex -11.8351 7.16008e-16 -6.77538
      vertex -11.6292 -2 -6.99466
      vertex -11.8351 -2 -6.77538
    endloop
  endfacet
  facet normal 0.42578 0 0.904827
    outer loop
      vertex -13.243 2.85728e-16 -8.71319
      vertex -12.9708 -2 -8.84127
      vertex -12.9708 2.5729e-16 -8.84127
    endloop
  endfacet
  facet normal 0.42578 0 0.904827
    outer loop
      vertex -12.9708 -2 -8.84127
      vertex -13.243 2.85728e-16 -8.71319
      vertex -13.243 -2 -8.71319
    endloop
  endfacet
  facet normal 0.425777 0 -0.904828
    outer loop
      vertex -13.243 -2 -6.68681
      vertex -12.9708 7.64115e-16 -6.55873
      vertex -12.9708 -2 -6.55873
    endloop
  endfacet
  facet normal 0.425777 0 -0.904828
    outer loop
      vertex -12.9708 7.64115e-16 -6.55873
      vertex -13.243 -2 -6.68681
      vertex -13.243 7.35677e-16 -6.68681
    endloop
  endfacet
  facet normal -0.876307 0 -0.481752
    outer loop
      vertex -11.4843 -2 -7.25825
      vertex -11.6292 6.6732e-16 -6.99466
      vertex -11.4843 6.08791e-16 -7.25825
    endloop
  endfacet
  facet normal -0.876307 -0 -0.481752
    outer loop
      vertex -11.6292 6.6732e-16 -6.99466
      vertex -11.4843 -2 -7.25825
      vertex -11.6292 -2 -6.99466
    endloop
  endfacet
  facet normal -0.309019 0 -0.951056
    outer loop
      vertex -12.3751 -2 -6.52126
      vertex -12.0891 7.51797e-16 -6.61421
      vertex -12.0891 -2 -6.61421
    endloop
  endfacet
  facet normal -0.309019 0 -0.951056
    outer loop
      vertex -12.0891 7.51797e-16 -6.61421
      vertex -12.3751 -2 -6.52126
      vertex -12.3751 7.72436e-16 -6.52126
    endloop
  endfacet
  facet normal 0.992115 0 -0.125331
    outer loop
      vertex -13.7623 -2 -7.40157
      vertex -13.8 5.10702e-16 -7.7
      vertex -13.7623 5.76967e-16 -7.40157
    endloop
  endfacet
  facet normal 0.992115 0 -0.125331
    outer loop
      vertex -13.8 5.10702e-16 -7.7
      vertex -13.7623 -2 -7.40157
      vertex -13.8 -2 -7.7
    endloop
  endfacet
  facet normal -0.535827 0 0.844328
    outer loop
      vertex -12.0891 2.69608e-16 -8.78579
      vertex -11.8351 -2 -8.62462
      vertex -11.8351 3.05396e-16 -8.62462
    endloop
  endfacet
  facet normal -0.535827 0 0.844328
    outer loop
      vertex -11.8351 -2 -8.62462
      vertex -12.0891 2.69608e-16 -8.78579
      vertex -12.0891 -2 -8.78579
    endloop
  endfacet
  facet normal -0.728969 0 0.684547
    outer loop
      vertex -11.8351 -2 -8.62462
      vertex -11.6292 3.54085e-16 -8.40534
      vertex -11.8351 3.05396e-16 -8.62462
    endloop
  endfacet
  facet normal -0.728969 0 0.684547
    outer loop
      vertex -11.6292 3.54085e-16 -8.40534
      vertex -11.8351 -2 -8.62462
      vertex -11.6292 -2 -8.40534
    endloop
  endfacet
  facet normal 0.809017 -0 0.587785
    outer loop
      vertex -13.6516 -2 -8.2781
      vertex -13.4748 3.28303e-16 -8.52146
      vertex -13.6516 3.82338e-16 -8.2781
    endloop
  endfacet
  facet normal 0.809017 0 0.587785
    outer loop
      vertex -13.4748 3.28303e-16 -8.52146
      vertex -13.6516 -2 -8.2781
      vertex -13.4748 -2 -8.52146
    endloop
  endfacet
  facet normal 0.929776 0 -0.368126
    outer loop
      vertex -13.6516 -2 -7.1219
      vertex -13.7623 5.76967e-16 -7.40157
      vertex -13.6516 6.39068e-16 -7.1219
    endloop
  endfacet
  facet normal 0.929776 0 -0.368126
    outer loop
      vertex -13.7623 5.76967e-16 -7.40157
      vertex -13.6516 -2 -7.1219
      vertex -13.7623 -2 -7.40157
    endloop
  endfacet
  facet normal -0.968583 0 0.24869
    outer loop
      vertex -11.4843 -2 -8.14175
      vertex -11.4095 4.77307e-16 -7.8504
      vertex -11.4843 4.12614e-16 -8.14175
    endloop
  endfacet
  facet normal -0.968583 0 0.24869
    outer loop
      vertex -11.4095 4.77307e-16 -7.8504
      vertex -11.4843 -2 -8.14175
      vertex -11.4095 -2 -7.8504
    endloop
  endfacet
  facet normal 0.929776 -0 0.368126
    outer loop
      vertex -13.7623 -2 -7.99843
      vertex -13.6516 3.82338e-16 -8.2781
      vertex -13.7623 4.44438e-16 -7.99843
    endloop
  endfacet
  facet normal 0.929776 0 0.368126
    outer loop
      vertex -13.6516 3.82338e-16 -8.2781
      vertex -13.7623 -2 -7.99843
      vertex -13.6516 -2 -8.2781
    endloop
  endfacet
  facet normal 0.637424 0 0.770513
    outer loop
      vertex -13.4748 3.28303e-16 -8.52146
      vertex -13.243 -2 -8.71319
      vertex -13.243 2.85728e-16 -8.71319
    endloop
  endfacet
  facet normal 0.637424 0 0.770513
    outer loop
      vertex -13.243 -2 -8.71319
      vertex -13.4748 3.28303e-16 -8.52146
      vertex -13.4748 -2 -8.52146
    endloop
  endfacet
  facet normal -0.309016 0 0.951057
    outer loop
      vertex -12.3751 2.48969e-16 -8.87875
      vertex -12.0891 -2 -8.78579
      vertex -12.0891 2.69608e-16 -8.78579
    endloop
  endfacet
  facet normal -0.309016 0 0.951057
    outer loop
      vertex -12.0891 -2 -8.78579
      vertex -12.3751 2.48969e-16 -8.87875
      vertex -12.3751 -2 -8.87875
    endloop
  endfacet
  facet normal 0.187381 0 0.982287
    outer loop
      vertex -12.9708 2.5729e-16 -8.84127
      vertex -12.6753 -2 -8.89763
      vertex -12.6753 2.44775e-16 -8.89763
    endloop
  endfacet
  facet normal 0.187381 0 0.982287
    outer loop
      vertex -12.6753 -2 -8.89763
      vertex -12.9708 2.5729e-16 -8.84127
      vertex -12.9708 -2 -8.84127
    endloop
  endfacet
  facet normal -0.876307 0 0.481752
    outer loop
      vertex -11.6292 -2 -8.40534
      vertex -11.4843 4.12614e-16 -8.14175
      vertex -11.6292 3.54085e-16 -8.40534
    endloop
  endfacet
  facet normal -0.876307 0 0.481752
    outer loop
      vertex -11.4843 4.12614e-16 -8.14175
      vertex -11.6292 -2 -8.40534
      vertex -11.4843 -2 -8.14175
    endloop
  endfacet
  facet normal -0.062791 0 0.998027
    outer loop
      vertex -12.6753 2.44775e-16 -8.89763
      vertex -12.3751 -2 -8.87875
      vertex -12.3751 2.48969e-16 -8.87875
    endloop
  endfacet
  facet normal -0.062791 0 0.998027
    outer loop
      vertex -12.3751 -2 -8.87875
      vertex -12.6753 2.44775e-16 -8.89763
      vertex -12.6753 -2 -8.89763
    endloop
  endfacet
  facet normal 0.809016 0 -0.587787
    outer loop
      vertex -13.4748 -2 20.4215
      vertex -13.6516 6.70089e-15 20.1781
      vertex -13.4748 6.75492e-15 20.4215
    endloop
  endfacet
  facet normal 0.809016 0 -0.587787
    outer loop
      vertex -13.6516 6.70089e-15 20.1781
      vertex -13.4748 -2 20.4215
      vertex -13.6516 -2 20.1781
    endloop
  endfacet
  facet normal -1 0 0
    outer loop
      vertex -11.4095 -2 19.4496
      vertex -11.4095 6.60592e-15 19.7504
      vertex -11.4095 6.53912e-15 19.4496
    endloop
  endfacet
  facet normal -1 -0 0
    outer loop
      vertex -11.4095 6.60592e-15 19.7504
      vertex -11.4095 -2 19.4496
      vertex -11.4095 -2 19.7504
    endloop
  endfacet
  facet normal 0.992115 -0 0.125332
    outer loop
      vertex -13.8 -2 19.6
      vertex -13.7623 6.50626e-15 19.3016
      vertex -13.8 6.57252e-15 19.6
    endloop
  endfacet
  facet normal 0.992115 0 0.125332
    outer loop
      vertex -13.7623 6.50626e-15 19.3016
      vertex -13.8 -2 19.6
      vertex -13.7623 -2 19.3016
    endloop
  endfacet
  facet normal 0.637426 0 -0.770512
    outer loop
      vertex -13.4748 -2 20.4215
      vertex -13.243 6.79749e-15 20.6132
      vertex -13.243 -2 20.6132
    endloop
  endfacet
  facet normal 0.637426 0 -0.770512
    outer loop
      vertex -13.243 6.79749e-15 20.6132
      vertex -13.4748 -2 20.4215
      vertex -13.4748 6.75492e-15 20.4215
    endloop
  endfacet
  facet normal 0.187375 0 -0.982288
    outer loop
      vertex -12.9708 -2 20.7413
      vertex -12.6753 6.83845e-15 20.7976
      vertex -12.6753 -2 20.7976
    endloop
  endfacet
  facet normal 0.187375 0 -0.982288
    outer loop
      vertex -12.6753 6.83845e-15 20.7976
      vertex -12.9708 -2 20.7413
      vertex -12.9708 6.82593e-15 20.7413
    endloop
  endfacet
  facet normal 0.42578 0 -0.904827
    outer loop
      vertex -13.243 -2 20.6132
      vertex -12.9708 6.82593e-15 20.7413
      vertex -12.9708 -2 20.7413
    endloop
  endfacet
  facet normal 0.42578 0 -0.904827
    outer loop
      vertex -12.9708 6.82593e-15 20.7413
      vertex -13.243 -2 20.6132
      vertex -13.243 6.79749e-15 20.6132
    endloop
  endfacet
  facet normal -0.535822 0 -0.844331
    outer loop
      vertex -12.0891 -2 20.6858
      vertex -11.8351 6.77783e-15 20.5246
      vertex -11.8351 -2 20.5246
    endloop
  endfacet
  facet normal -0.535822 0 -0.844331
    outer loop
      vertex -11.8351 6.77783e-15 20.5246
      vertex -12.0891 -2 20.6858
      vertex -12.0891 6.81361e-15 20.6858
    endloop
  endfacet
  facet normal -0.968582 0 -0.248693
    outer loop
      vertex -11.4095 -2 19.7504
      vertex -11.4843 6.67061e-15 20.0417
      vertex -11.4095 6.60592e-15 19.7504
    endloop
  endfacet
  facet normal -0.968582 -0 -0.248693
    outer loop
      vertex -11.4843 6.67061e-15 20.0417
      vertex -11.4095 -2 19.7504
      vertex -11.4843 -2 20.0417
    endloop
  endfacet
  facet normal -0.72897 0 -0.684546
    outer loop
      vertex -11.6292 -2 20.3053
      vertex -11.8351 6.77783e-15 20.5246
      vertex -11.6292 6.72914e-15 20.3053
    endloop
  endfacet
  facet normal -0.72897 -0 -0.684546
    outer loop
      vertex -11.8351 6.77783e-15 20.5246
      vertex -11.6292 -2 20.3053
      vertex -11.8351 -2 20.5246
    endloop
  endfacet
  facet normal 0.42578 0 0.904827
    outer loop
      vertex -13.243 6.34755e-15 18.5868
      vertex -12.9708 -2 18.4587
      vertex -12.9708 6.31911e-15 18.4587
    endloop
  endfacet
  facet normal 0.42578 0 0.904827
    outer loop
      vertex -12.9708 -2 18.4587
      vertex -13.243 6.34755e-15 18.5868
      vertex -13.243 -2 18.5868
    endloop
  endfacet
  facet normal -0.0627879 0 -0.998027
    outer loop
      vertex -12.6753 -2 20.7976
      vertex -12.3751 6.83425e-15 20.7787
      vertex -12.3751 -2 20.7787
    endloop
  endfacet
  facet normal -0.0627879 0 -0.998027
    outer loop
      vertex -12.3751 6.83425e-15 20.7787
      vertex -12.6753 -2 20.7976
      vertex -12.6753 6.83845e-15 20.7976
    endloop
  endfacet
  facet normal -0.876308 0 -0.481751
    outer loop
      vertex -11.4843 -2 20.0417
      vertex -11.6292 6.72914e-15 20.3053
      vertex -11.4843 6.67061e-15 20.0417
    endloop
  endfacet
  facet normal -0.876308 -0 -0.481751
    outer loop
      vertex -11.6292 6.72914e-15 20.3053
      vertex -11.4843 -2 20.0417
      vertex -11.6292 -2 20.3053
    endloop
  endfacet
  facet normal -0.309019 0 -0.951056
    outer loop
      vertex -12.3751 -2 20.7787
      vertex -12.0891 6.81361e-15 20.6858
      vertex -12.0891 -2 20.6858
    endloop
  endfacet
  facet normal -0.309019 0 -0.951056
    outer loop
      vertex -12.0891 6.81361e-15 20.6858
      vertex -12.3751 -2 20.7787
      vertex -12.3751 6.83425e-15 20.7787
    endloop
  endfacet
  facet normal 0.992115 0 -0.125332
    outer loop
      vertex -13.7623 -2 19.8984
      vertex -13.8 6.57252e-15 19.6
      vertex -13.7623 6.63878e-15 19.8984
    endloop
  endfacet
  facet normal 0.992115 0 -0.125332
    outer loop
      vertex -13.8 6.57252e-15 19.6
      vertex -13.7623 -2 19.8984
      vertex -13.8 -2 19.6
    endloop
  endfacet
  facet normal -0.535831 0 0.844325
    outer loop
      vertex -12.0891 6.33143e-15 18.5142
      vertex -11.8351 -2 18.6754
      vertex -11.8351 6.36721e-15 18.6754
    endloop
  endfacet
  facet normal -0.535831 0 0.844325
    outer loop
      vertex -11.8351 -2 18.6754
      vertex -12.0891 6.33143e-15 18.5142
      vertex -12.0891 -2 18.5142
    endloop
  endfacet
  facet normal -0.728967 0 0.684549
    outer loop
      vertex -11.8351 -2 18.6754
      vertex -11.6292 6.4159e-15 18.8947
      vertex -11.8351 6.36721e-15 18.6754
    endloop
  endfacet
  facet normal -0.728967 0 0.684549
    outer loop
      vertex -11.6292 6.4159e-15 18.8947
      vertex -11.8351 -2 18.6754
      vertex -11.6292 -2 18.8947
    endloop
  endfacet
  facet normal 0.809018 -0 0.587784
    outer loop
      vertex -13.6516 -2 19.0219
      vertex -13.4748 6.39012e-15 18.7785
      vertex -13.6516 6.44416e-15 19.0219
    endloop
  endfacet
  facet normal 0.809018 0 0.587784
    outer loop
      vertex -13.4748 6.39012e-15 18.7785
      vertex -13.6516 -2 19.0219
      vertex -13.4748 -2 18.7785
    endloop
  endfacet
  facet normal 0.929777 0 -0.368123
    outer loop
      vertex -13.6516 -2 20.1781
      vertex -13.7623 6.63878e-15 19.8984
      vertex -13.6516 6.70089e-15 20.1781
    endloop
  endfacet
  facet normal 0.929777 0 -0.368123
    outer loop
      vertex -13.7623 6.63878e-15 19.8984
      vertex -13.6516 -2 20.1781
      vertex -13.7623 -2 19.8984
    endloop
  endfacet
  facet normal -0.968583 0 0.24869
    outer loop
      vertex -11.4843 -2 19.1582
      vertex -11.4095 6.53912e-15 19.4496
      vertex -11.4843 6.47443e-15 19.1582
    endloop
  endfacet
  facet normal -0.968583 0 0.24869
    outer loop
      vertex -11.4095 6.53912e-15 19.4496
      vertex -11.4843 -2 19.1582
      vertex -11.4095 -2 19.4496
    endloop
  endfacet
  facet normal 0.929775 -0 0.368128
    outer loop
      vertex -13.7623 -2 19.3016
      vertex -13.6516 6.44416e-15 19.0219
      vertex -13.7623 6.50626e-15 19.3016
    endloop
  endfacet
  facet normal 0.929775 0 0.368128
    outer loop
      vertex -13.6516 6.44416e-15 19.0219
      vertex -13.7623 -2 19.3016
      vertex -13.6516 -2 19.0219
    endloop
  endfacet
  facet normal 0.637422 0 0.770515
    outer loop
      vertex -13.4748 6.39012e-15 18.7785
      vertex -13.243 -2 18.5868
      vertex -13.243 6.34755e-15 18.5868
    endloop
  endfacet
  facet normal 0.637422 0 0.770515
    outer loop
      vertex -13.243 -2 18.5868
      vertex -13.4748 6.39012e-15 18.7785
      vertex -13.4748 -2 18.7785
    endloop
  endfacet
  facet normal -0.309013 0 0.951058
    outer loop
      vertex -12.3751 6.31079e-15 18.4213
      vertex -12.0891 -2 18.5142
      vertex -12.0891 6.33143e-15 18.5142
    endloop
  endfacet
  facet normal -0.309013 0 0.951058
    outer loop
      vertex -12.0891 -2 18.5142
      vertex -12.3751 6.31079e-15 18.4213
      vertex -12.3751 -2 18.4213
    endloop
  endfacet
  facet normal 0.187387 0 0.982286
    outer loop
      vertex -12.9708 6.31911e-15 18.4587
      vertex -12.6753 -2 18.4024
      vertex -12.6753 6.30659e-15 18.4024
    endloop
  endfacet
  facet normal 0.187387 0 0.982286
    outer loop
      vertex -12.6753 -2 18.4024
      vertex -12.9708 6.31911e-15 18.4587
      vertex -12.9708 -2 18.4587
    endloop
  endfacet
  facet normal -0.876307 0 0.481754
    outer loop
      vertex -11.6292 -2 18.8947
      vertex -11.4843 6.47443e-15 19.1582
      vertex -11.6292 6.4159e-15 18.8947
    endloop
  endfacet
  facet normal -0.876307 0 0.481754
    outer loop
      vertex -11.4843 6.47443e-15 19.1582
      vertex -11.6292 -2 18.8947
      vertex -11.4843 -2 19.1582
    endloop
  endfacet
  facet normal -0.0627942 0 0.998026
    outer loop
      vertex -12.6753 6.30659e-15 18.4024
      vertex -12.3751 -2 18.4213
      vertex -12.3751 6.31079e-15 18.4213
    endloop
  endfacet
  facet normal -0.0627942 0 0.998026
    outer loop
      vertex -12.3751 -2 18.4213
      vertex -12.6753 6.30659e-15 18.4024
      vertex -12.6753 -2 18.4024
    endloop
  endfacet
  facet normal 0 0.998027 -0.0627905
    outer loop
      vertex -18.7 9.82287 -1.87381
      vertex -20.7 9.94076 0
      vertex -18.7 9.94076 0
    endloop
  endfacet
  facet normal 0 0.998027 -0.0627905
    outer loop
      vertex -20.7 9.94076 0
      vertex -18.7 9.82287 -1.87381
      vertex -20.7 9.82287 -1.87381
    endloop
  endfacet
  facet normal 0 0 -1
    outer loop
      vertex -20.7 -1.25333 -9.92115
      vertex -18.7 1.7509e-17 -9.92115
      vertex -18.7 -1.25333 -9.92115
    endloop
  endfacet
  facet normal 0 0 -1
    outer loop
      vertex -20.7 1.25333 -9.92115
      vertex -18.7 1.7509e-17 -9.92115
      vertex -20.7 -1.25333 -9.92115
    endloop
  endfacet
  facet normal 0 0 -1
    outer loop
      vertex -18.7 1.7509e-17 -9.92115
      vertex -20.7 1.25333 -9.92115
      vertex -18.7 1.25333 -9.92115
    endloop
  endfacet
  facet normal 0 0.481754 -0.876307
    outer loop
      vertex -20.7 3.68124 -9.29776
      vertex -18.7 5.87785 -8.09017
      vertex -18.7 3.68124 -9.29776
    endloop
  endfacet
  facet normal 0 0.481754 -0.876307
    outer loop
      vertex -18.7 5.87785 -8.09017
      vertex -20.7 3.68124 -9.29776
      vertex -20.7 5.87785 -8.09017
    endloop
  endfacet
  facet normal 0 0.951057 -0.309017
    outer loop
      vertex -18.7 9.04827 -4.25779
      vertex -20.7 9.82287 -1.87381
      vertex -18.7 9.82287 -1.87381
    endloop
  endfacet
  facet normal 0 0.951057 -0.309017
    outer loop
      vertex -20.7 9.82287 -1.87381
      vertex -18.7 9.04827 -4.25779
      vertex -20.7 9.04827 -4.25779
    endloop
  endfacet
  facet normal 0 0.684547 -0.728968
    outer loop
      vertex -20.7 5.87785 -8.09017
      vertex -18.7 7.70513 -6.37424
      vertex -18.7 5.87785 -8.09017
    endloop
  endfacet
  facet normal 0 0.684547 -0.728968
    outer loop
      vertex -18.7 7.70513 -6.37424
      vertex -20.7 5.87785 -8.09017
      vertex -20.7 7.70513 -6.37424
    endloop
  endfacet
  facet normal 0 0.24869 -0.968583
    outer loop
      vertex -20.7 1.25333 -9.92115
      vertex -18.7 3.68124 -9.29776
      vertex -18.7 1.25333 -9.92115
    endloop
  endfacet
  facet normal 0 0.24869 -0.968583
    outer loop
      vertex -18.7 3.68124 -9.29776
      vertex -20.7 1.25333 -9.92115
      vertex -20.7 3.68124 -9.29776
    endloop
  endfacet
  facet normal 0 0.844328 -0.535827
    outer loop
      vertex -18.7 7.70513 -6.37424
      vertex -20.7 9.04827 -4.25779
      vertex -18.7 9.04827 -4.25779
    endloop
  endfacet
  facet normal 0 0.844328 -0.535827
    outer loop
      vertex -20.7 9.04827 -4.25779
      vertex -18.7 7.70513 -6.37424
      vertex -20.7 7.70513 -6.37424
    endloop
  endfacet
  facet normal -1 0 0
    outer loop
      vertex -20.7 17 0
      vertex -20.7 16.1227 4.3552
      vertex -20.7 17 4.3552
    endloop
  endfacet
  facet normal -1 0 0
    outer loop
      vertex -20.7 17 0
      vertex -20.7 14.4231 4.79156
      vertex -20.7 16.1227 4.3552
    endloop
  endfacet
  facet normal -1 0 0
    outer loop
      vertex -20.7 9.94076 0
      vertex -20.7 14.4231 4.79156
      vertex -20.7 17 0
    endloop
  endfacet
  facet normal -1 -0 0
    outer loop
      vertex -20.7 14.4231 4.79156
      vertex -20.7 9.94076 0
      vertex -20.7 12.8855 5.63688
    endloop
  endfacet
  facet normal -1 -0 0
    outer loop
      vertex -20.7 10.6662 8.31954
      vertex -20.7 -2 0
      vertex -20.7 10.124 9.98833
    endloop
  endfacet
  facet normal -1 0 0
    outer loop
      vertex -20.7 -2 0
      vertex -20.7 10.6662 8.31954
      vertex -20.7 9.94076 0
    endloop
  endfacet
  facet normal -1 -0 0
    outer loop
      vertex -20.7 11.6064 6.83803
      vertex -20.7 9.94076 0
      vertex -20.7 10.6662 8.31954
    endloop
  endfacet
  facet normal -1 -0 0
    outer loop
      vertex -20.7 12.8855 5.63688
      vertex -20.7 9.94076 0
      vertex -20.7 11.6064 6.83803
    endloop
  endfacet
  facet normal -1 0 0
    outer loop
      vertex -20.7 15.2592 18.0801
      vertex -20.7 17 22
      vertex -20.7 17 18.3
    endloop
  endfacet
  facet normal -1 0 0
    outer loop
      vertex -20.7 13.6277 17.4341
      vertex -20.7 17 22
      vertex -20.7 15.2592 18.0801
    endloop
  endfacet
  facet normal -1 0 0
    outer loop
      vertex -20.7 -2 22
      vertex -20.7 13.6277 17.4341
      vertex -20.7 12.2082 16.4028
    endloop
  endfacet
  facet normal -1 0 0
    outer loop
      vertex -20.7 -2 0
      vertex -20.7 9.94076 0
      vertex -20.7 9.82287 -1.87381
    endloop
  endfacet
  facet normal -1 0 0
    outer loop
      vertex -20.7 -2 0
      vertex -20.7 9.82287 -1.87381
      vertex -20.7 9.04827 -4.25779
    endloop
  endfacet
  facet normal -1 0 0
    outer loop
      vertex -20.7 -2 0
      vertex -20.7 9.04827 -4.25779
      vertex -20.7 7.70513 -6.37424
    endloop
  endfacet
  facet normal -1 0 0
    outer loop
      vertex -20.7 -2 0
      vertex -20.7 7.70513 -6.37424
      vertex -20.7 5.87785 -8.09017
    endloop
  endfacet
  facet normal -1 -0 0
    outer loop
      vertex -20.7 10.124 9.98833
      vertex -20.7 -2 0
      vertex -20.7 10.0138 11.7395
    endloop
  endfacet
  facet normal -1 0 0
    outer loop
      vertex -20.7 -2 0
      vertex -20.7 5.87785 -8.09017
      vertex -20.7 3.68124 -9.29776
    endloop
  endfacet
  facet normal -1 0 0
    outer loop
      vertex -20.7 -2 0
      vertex -20.7 3.68124 -9.29776
      vertex -20.7 1.25333 -9.92115
    endloop
  endfacet
  facet normal -1 0 0
    outer loop
      vertex -20.7 -2 0
      vertex -20.7 1.25333 -9.92115
      vertex -20.7 -1.25333 -9.92115
    endloop
  endfacet
  facet normal -1 0 0
    outer loop
      vertex -20.7 -2 22
      vertex -20.7 10.0138 11.7395
      vertex -20.7 -2 0
    endloop
  endfacet
  facet normal -1 0 0
    outer loop
      vertex -20.7 -2 0
      vertex -20.7 -1.25333 -9.92115
      vertex -20.7 -2 -9.72943
    endloop
  endfacet
  facet normal -1 0 0
    outer loop
      vertex -20.7 10.0138 11.7395
      vertex -20.7 -2 22
      vertex -20.7 10.3426 13.4631
    endloop
  endfacet
  facet normal -1 0 0
    outer loop
      vertex -20.7 10.3426 13.4631
      vertex -20.7 -2 22
      vertex -20.7 11.0897 15.0508
    endloop
  endfacet
  facet normal -1 0 0
    outer loop
      vertex -20.7 11.0897 15.0508
      vertex -20.7 -2 22
      vertex -20.7 12.2082 16.4028
    endloop
  endfacet
  facet normal -1 0 0
    outer loop
      vertex -20.7 13.6277 17.4341
      vertex -20.7 -2 22
      vertex -20.7 17 22
    endloop
  endfacet
  facet normal 0 -0.24869 -0.968583
    outer loop
      vertex -20.7 -2 -9.72943
      vertex -18.7 -1.25333 -9.92115
      vertex -18.7 -2 -9.72943
    endloop
  endfacet
  facet normal -0 -0.24869 -0.968583
    outer loop
      vertex -18.7 -1.25333 -9.92115
      vertex -20.7 -2 -9.72943
      vertex -20.7 -1.25333 -9.92115
    endloop
  endfacet
  facet normal 0 -1 0
    outer loop
      vertex -20.7 -2 -9.72943
      vertex -18.7 -2 0
      vertex -20.7 -2 0
    endloop
  endfacet
  facet normal 0 -1 -0
    outer loop
      vertex -18.7 -2 0
      vertex -20.7 -2 -9.72943
      vertex -18.7 -2 -9.72943
    endloop
  endfacet
  facet normal 0 -1 0
    outer loop
      vertex -20.7 -2 0
      vertex -18.7 -2 22
      vertex -20.7 -2 22
    endloop
  endfacet
  facet normal 0 -1 -0
    outer loop
      vertex -18.7 -2 22
      vertex -20.7 -2 0
      vertex -18.7 -2 0
    endloop
  endfacet
  facet normal 1 6.34586e-08 3.97364e-08
    outer loop
      vertex 2 17 22
      vertex 2 15.2592 6.78008
      vertex 2 17 7
    endloop
  endfacet
  facet normal 1 -1.94891e-08 4.92238e-08
    outer loop
      vertex 2 17 22
      vertex 2 13.6277 6.13415
      vertex 2 15.2592 6.78008
    endloop
  endfacet
  facet normal 1 -0 4.50815e-08
    outer loop
      vertex 2 -2 22
      vertex 2 13.6277 6.13415
      vertex 2 17 22
    endloop
  endfacet
  facet normal 1 -1.90912e-08 2.62768e-08
    outer loop
      vertex 2 13.6277 6.13415
      vertex 2 -2 22
      vertex 2 12.2082 5.10278
    endloop
  endfacet
  facet normal 1 2.74818e-08 6.54381e-08
    outer loop
      vertex 2 12.2082 5.10278
      vertex 2 -2 22
      vertex 2 11.0897 3.75079
    endloop
  endfacet
  facet normal 1 1.05265e-08 -4.95339e-09
    outer loop
      vertex 2 11.0897 3.75079
      vertex 2 -2 0
      vertex 2 10.3426 2.16312
    endloop
  endfacet
  facet normal 1 -3.31428e-09 4.33488e-08
    outer loop
      vertex 2 -2 0
      vertex 2 11.0897 3.75079
      vertex 2 -2 22
    endloop
  endfacet
  facet normal 1 -2.54818e-09 6.96497e-08
    outer loop
      vertex 2 10.3426 2.16312
      vertex 2 -2 0
      vertex 2 10.0138 0.439533
    endloop
  endfacet
  facet normal 1 0 0
    outer loop
      vertex 2 10.0138 0.439533
      vertex 2 -2 0
      vertex 2 10.0415 0
    endloop
  endfacet
  facet normal 0 -1 0
    outer loop
      vertex 0 -2 0
      vertex 2 -2 22
      vertex 0 -2 22
    endloop
  endfacet
  facet normal 0 -1 -0
    outer loop
      vertex 2 -2 22
      vertex 0 -2 0
      vertex 2 -2 0
    endloop
  endfacet
  facet normal 0 0 1
    outer loop
      vertex 0 7.10543e-15 22
      vertex 2 17 22
      vertex 0 17 22
    endloop
  endfacet
  facet normal 0 0 1
    outer loop
      vertex 2 17 22
      vertex 0 7.10543e-15 22
      vertex 2 -2 22
    endloop
  endfacet
  facet normal 0 0 1
    outer loop
      vertex 2 -2 22
      vertex 0 7.10543e-15 22
      vertex 0 -2 22
    endloop
  endfacet
  facet normal 0 1 0
    outer loop
      vertex 2 17 7
      vertex 0 17 22
      vertex 2 17 22
    endloop
  endfacet
  facet normal 0 1 0
    outer loop
      vertex 0 17 22
      vertex 2 17 7
      vertex 0 17 7
    endloop
  endfacet
  facet normal 0 0 -1
    outer loop
      vertex 0 2.22045e-15 0
      vertex 2 -2 0
      vertex 0 -2 0
    endloop
  endfacet
  facet normal 0 0 -1
    outer loop
      vertex 2 -2 0
      vertex 0 2.22045e-15 0
      vertex 2 10.0415 0
    endloop
  endfacet
  facet normal -0 0 -1
    outer loop
      vertex 2 10.0415 0
      vertex 0 2.22045e-15 0
      vertex 0 10.0415 0
    endloop
  endfacet
  facet normal 0 0.368124 -0.929777
    outer loop
      vertex 0 13.6277 6.13415
      vertex 2 15.2592 6.78008
      vertex 2 13.6277 6.13415
    endloop
  endfacet
  facet normal 0 0.368124 -0.929777
    outer loop
      vertex 2 15.2592 6.78008
      vertex 0 13.6277 6.13415
      vertex 0 15.2592 6.78008
    endloop
  endfacet
  facet normal 0 0.982287 -0.187381
    outer loop
      vertex 2 10.0138 0.439533
      vertex 0 10.3426 2.16312
      vertex 2 10.3426 2.16312
    endloop
  endfacet
  facet normal 0 0.982287 -0.187381
    outer loop
      vertex 0 10.3426 2.16312
      vertex 2 10.0138 0.439533
      vertex 0 10.0138 0.439533
    endloop
  endfacet
  facet normal 0 0.904827 -0.42578
    outer loop
      vertex 2 10.3426 2.16312
      vertex 0 11.0897 3.75079
      vertex 2 11.0897 3.75079
    endloop
  endfacet
  facet normal 0 0.904827 -0.42578
    outer loop
      vertex 0 11.0897 3.75079
      vertex 2 10.3426 2.16312
      vertex 0 10.3426 2.16312
    endloop
  endfacet
  facet normal 0 0.998027 0.0627919
    outer loop
      vertex 2 10.0415 0
      vertex 0 10.0138 0.439533
      vertex 2 10.0138 0.439533
    endloop
  endfacet
  facet normal 0 0.998027 0.0627919
    outer loop
      vertex 0 10.0138 0.439533
      vertex 2 10.0415 0
      vertex 0 10.0415 0
    endloop
  endfacet
  facet normal 0 0.125333 -0.992115
    outer loop
      vertex 0 15.2592 6.78008
      vertex 2 17 7
      vertex 2 15.2592 6.78008
    endloop
  endfacet
  facet normal 0 0.125333 -0.992115
    outer loop
      vertex 2 17 7
      vertex 0 15.2592 6.78008
      vertex 0 17 7
    endloop
  endfacet
  facet normal 0 0.770514 -0.637424
    outer loop
      vertex 2 11.0897 3.75079
      vertex 0 12.2082 5.10278
      vertex 2 12.2082 5.10278
    endloop
  endfacet
  facet normal 0 0.770514 -0.637424
    outer loop
      vertex 0 12.2082 5.10278
      vertex 2 11.0897 3.75079
      vertex 0 11.0897 3.75079
    endloop
  endfacet
  facet normal 0 0.587785 -0.809017
    outer loop
      vertex 0 12.2082 5.10278
      vertex 2 13.6277 6.13415
      vertex 2 12.2082 5.10278
    endloop
  endfacet
  facet normal 0 0.587785 -0.809017
    outer loop
      vertex 2 13.6277 6.13415
      vertex 0 12.2082 5.10278
      vertex 0 13.6277 6.13415
    endloop
  endfacet
  facet normal 0 0 -1
    outer loop
      vertex -18.7 9.94076 0
      vertex -20.7 9.94076 0
      vertex -18.7 15 0
    endloop
  endfacet
  facet normal 0 0 -1
    outer loop
      vertex -18.7 15 0
      vertex -17.7 17 0
      vertex -17.7 15 0
    endloop
  endfacet
  facet normal 0 0 -1
    outer loop
      vertex -18.7 15 0
      vertex -20.7 17 0
      vertex -17.7 17 0
    endloop
  endfacet
  facet normal 0 0 -1
    outer loop
      vertex -20.7 17 0
      vertex -18.7 15 0
      vertex -20.7 9.94076 0
    endloop
  endfacet
  facet normal 0 0 1
    outer loop
      vertex -17.7 17 22
      vertex -18.7 15 22
      vertex -17.7 15 22
    endloop
  endfacet
  facet normal 0 0 1
    outer loop
      vertex -20.7 -2 22
      vertex -18.7 7.10543e-15 22
      vertex -18.7 15 22
    endloop
  endfacet
  facet normal -0 0 1
    outer loop
      vertex -20.7 17 22
      vertex -18.7 15 22
      vertex -17.7 17 22
    endloop
  endfacet
  facet normal 0 0 1
    outer loop
      vertex -20.7 -2 22
      vertex -18.7 15 22
      vertex -20.7 17 22
    endloop
  endfacet
  facet normal 0 0 1
    outer loop
      vertex -18.7 7.10543e-15 22
      vertex -20.7 -2 22
      vertex -18.7 -2 22
    endloop
  endfacet
  facet normal 0 1 -0
    outer loop
      vertex -17.7 17 18.3
      vertex -20.7 17 22
      vertex -17.7 17 22
    endloop
  endfacet
  facet normal 0 1 0
    outer loop
      vertex -20.7 17 22
      vertex -17.7 17 18.3
      vertex -20.7 17 18.3
    endloop
  endfacet
  facet normal 0 1 -0
    outer loop
      vertex -17.7 17 0
      vertex -20.7 17 4.3552
      vertex -17.7 17 4.3552
    endloop
  endfacet
  facet normal 0 1 0
    outer loop
      vertex -20.7 17 4.3552
      vertex -17.7 17 0
      vertex -20.7 17 0
    endloop
  endfacet
  facet normal 0 0.125333 -0.992115
    outer loop
      vertex -20.7 15.2592 18.0801
      vertex -17.7 17 18.3
      vertex -17.7 15.2592 18.0801
    endloop
  endfacet
  facet normal 0 0.125333 -0.992115
    outer loop
      vertex -17.7 17 18.3
      vertex -20.7 15.2592 18.0801
      vertex -20.7 17 18.3
    endloop
  endfacet
  facet normal -0 0 1
    outer loop
      vertex -20.7 17 4.3552
      vertex -17.7 16.1227 4.3552
      vertex -17.7 17 4.3552
    endloop
  endfacet
  facet normal 0 0 1
    outer loop
      vertex -17.7 16.1227 4.3552
      vertex -20.7 17 4.3552
      vertex -20.7 16.1227 4.3552
    endloop
  endfacet
  facet normal 0 0.982287 -0.187381
    outer loop
      vertex -18.7 10.0138 11.7395
      vertex -20.7 10.3426 13.4631
      vertex -18.7 10.3426 13.4631
    endloop
  endfacet
  facet normal 0 0.982287 -0.187381
    outer loop
      vertex -20.7 10.3426 13.4631
      vertex -18.7 10.0138 11.7395
      vertex -20.7 10.0138 11.7395
    endloop
  endfacet
  facet normal 0 0.368124 -0.929777
    outer loop
      vertex -18.7 13.6277 17.4341
      vertex -20.7 13.6277 17.4341
      vertex -18.7 15 17.9775
    endloop
  endfacet
  facet normal 0 0.368126 -0.929776
    outer loop
      vertex -18.7 15 17.9775
      vertex -17.7 15.2592 18.0801
      vertex -17.7 15 17.9775
    endloop
  endfacet
  facet normal 0 0.368126 -0.929776
    outer loop
      vertex -18.7 15 17.9775
      vertex -20.7 15.2592 18.0801
      vertex -17.7 15.2592 18.0801
    endloop
  endfacet
  facet normal -3.00395e-07 0.368124 -0.929777
    outer loop
      vertex -20.7 15.2592 18.0801
      vertex -18.7 15 17.9775
      vertex -20.7 13.6277 17.4341
    endloop
  endfacet
  facet normal 0 0.904827 -0.42578
    outer loop
      vertex -18.7 10.3426 13.4631
      vertex -20.7 11.0897 15.0508
      vertex -18.7 11.0897 15.0508
    endloop
  endfacet
  facet normal 0 0.904827 -0.42578
    outer loop
      vertex -20.7 11.0897 15.0508
      vertex -18.7 10.3426 13.4631
      vertex -20.7 10.3426 13.4631
    endloop
  endfacet
  facet normal 0 0.998027 0.0627909
    outer loop
      vertex -18.7 10.124 9.98833
      vertex -20.7 10.0138 11.7395
      vertex -18.7 10.0138 11.7395
    endloop
  endfacet
  facet normal 0 0.998027 0.0627909
    outer loop
      vertex -20.7 10.0138 11.7395
      vertex -18.7 10.124 9.98833
      vertex -20.7 10.124 9.98833
    endloop
  endfacet
  facet normal 0 0.844328 0.535827
    outer loop
      vertex -18.7 11.6064 6.83803
      vertex -20.7 10.6662 8.31954
      vertex -18.7 10.6662 8.31954
    endloop
  endfacet
  facet normal 0 0.844328 0.535827
    outer loop
      vertex -20.7 10.6662 8.31954
      vertex -18.7 11.6064 6.83803
      vertex -20.7 11.6064 6.83803
    endloop
  endfacet
  facet normal 0 0.24869 0.968583
    outer loop
      vertex -17.7 16.1227 4.3552
      vertex -18.7 15 4.64345
      vertex -17.7 15 4.64345
    endloop
  endfacet
  facet normal -0 0.24869 0.968583
    outer loop
      vertex -20.7 16.1227 4.3552
      vertex -18.7 15 4.64345
      vertex -17.7 16.1227 4.3552
    endloop
  endfacet
  facet normal -1.00674e-07 0.24869 0.968583
    outer loop
      vertex -20.7 14.4231 4.79156
      vertex -18.7 15 4.64345
      vertex -20.7 16.1227 4.3552
    endloop
  endfacet
  facet normal 0 0.248689 0.968583
    outer loop
      vertex -18.7 15 4.64345
      vertex -20.7 14.4231 4.79156
      vertex -18.7 14.4231 4.79156
    endloop
  endfacet
  facet normal -0 0.684547 0.728969
    outer loop
      vertex -20.7 12.8855 5.63688
      vertex -18.7 11.6064 6.83803
      vertex -18.7 12.8855 5.63688
    endloop
  endfacet
  facet normal 0 0.684547 0.728969
    outer loop
      vertex -18.7 11.6064 6.83803
      vertex -20.7 12.8855 5.63688
      vertex -20.7 11.6064 6.83803
    endloop
  endfacet
  facet normal 0 0.770513 -0.637424
    outer loop
      vertex -18.7 11.0897 15.0508
      vertex -20.7 12.2082 16.4028
      vertex -18.7 12.2082 16.4028
    endloop
  endfacet
  facet normal 0 0.770513 -0.637424
    outer loop
      vertex -20.7 12.2082 16.4028
      vertex -18.7 11.0897 15.0508
      vertex -20.7 11.0897 15.0508
    endloop
  endfacet
  facet normal 0 0.587786 -0.809016
    outer loop
      vertex -20.7 12.2082 16.4028
      vertex -18.7 13.6277 17.4341
      vertex -18.7 12.2082 16.4028
    endloop
  endfacet
  facet normal 0 0.587786 -0.809016
    outer loop
      vertex -18.7 13.6277 17.4341
      vertex -20.7 12.2082 16.4028
      vertex -20.7 13.6277 17.4341
    endloop
  endfacet
  facet normal 0 0.951057 0.309017
    outer loop
      vertex -18.7 10.6662 8.31954
      vertex -20.7 10.124 9.98833
      vertex -18.7 10.124 9.98833
    endloop
  endfacet
  facet normal 0 0.951057 0.309017
    outer loop
      vertex -20.7 10.124 9.98833
      vertex -18.7 10.6662 8.31954
      vertex -20.7 10.6662 8.31954
    endloop
  endfacet
  facet normal -0 0.481754 0.876307
    outer loop
      vertex -20.7 14.4231 4.79156
      vertex -18.7 12.8855 5.63688
      vertex -18.7 14.4231 4.79156
    endloop
  endfacet
  facet normal 0 0.481754 0.876307
    outer loop
      vertex -18.7 12.8855 5.63688
      vertex -20.7 14.4231 4.79156
      vertex -20.7 12.8855 5.63688
    endloop
  endfacet
  facet normal 1 -0 0
    outer loop
      vertex -17.7 16.1227 4.3552
      vertex -17.7 17 0
      vertex -17.7 17 4.3552
    endloop
  endfacet
  facet normal 1 0 0
    outer loop
      vertex -17.7 15 0
      vertex -17.7 16.1227 4.3552
      vertex -17.7 15 4.64345
    endloop
  endfacet
  facet normal 1 0 0
    outer loop
      vertex -17.7 16.1227 4.3552
      vertex -17.7 15 0
      vertex -17.7 17 0
    endloop
  endfacet
  facet normal 1 -0 0
    outer loop
      vertex -17.7 15 22
      vertex -17.7 17 18.3
      vertex -17.7 17 22
    endloop
  endfacet
  facet normal 1 0 0
    outer loop
      vertex -17.7 17 18.3
      vertex -17.7 15 22
      vertex -17.7 15.2592 18.0801
    endloop
  endfacet
  facet normal 1 0 0
    outer loop
      vertex -17.7 15.2592 18.0801
      vertex -17.7 15 22
      vertex -17.7 15 17.9775
    endloop
  endfacet
  facet normal 0 -1 0
    outer loop
      vertex -18.7 15 0
      vertex -17.7 15 4.64345
      vertex -18.7 15 4.64345
    endloop
  endfacet
  facet normal 0 -1 -0
    outer loop
      vertex -17.7 15 4.64345
      vertex -18.7 15 0
      vertex -17.7 15 0
    endloop
  endfacet
  facet normal 0 -1 0
    outer loop
      vertex -18.7 15 17.9775
      vertex -17.7 15 22
      vertex -18.7 15 22
    endloop
  endfacet
  facet normal 0 -1 -0
    outer loop
      vertex -17.7 15 22
      vertex -18.7 15 17.9775
      vertex -17.7 15 17.9775
    endloop
  endfacet
endsolid OpenSCAD_Model
